<svg width="15" height="13" viewBox="0 0 15 13" fill="none" xmlns="http://www.w3.org/2000/svg">
<path opacity="0.5" d="M7.5 0C11.0899 0 14 2.91005 14 6.5C14 10.0899 11.0899 13 7.5 13C3.91005 13 1 10.0899 1 6.5C1 2.91005 3.91005 0 7.5 0ZM7.5 2.6C7.32761 2.6 7.16228 2.66848 7.04038 2.79038C6.91848 2.91228 6.85 3.07761 6.85 3.25V6.5C6.85004 6.67238 6.91854 6.83768 7.04045 6.95955L8.99045 8.90955C9.11304 9.02795 9.27723 9.09347 9.44766 9.09199C9.61809 9.09051 9.78112 9.02215 9.90163 8.90163C10.0221 8.78112 10.0905 8.61809 10.092 8.44766C10.0935 8.27723 10.028 8.11304 9.90955 7.99045L8.15 6.2309V3.25C8.15 3.07761 8.08152 2.91228 7.95962 2.79038C7.83772 2.66848 7.67239 2.6 7.5 2.6Z" fill="#0E7490"/>
</svg>
