<svg width="15" height="15" viewBox="0 0 15 15" fill="none" xmlns="http://www.w3.org/2000/svg">
<g opacity="0.5">
<path d="M7.50001 1.20532C8.88529 1.20532 10.2138 1.75562 11.1934 2.73517C12.1729 3.71471 12.7232 5.04325 12.7232 6.42854C12.7232 8.63568 11.1723 11.041 8.11072 13.6703C7.94049 13.8166 7.72343 13.8969 7.49901 13.8967C7.27458 13.8965 7.05767 13.8158 6.88769 13.6693L6.68519 13.4935C3.75912 10.9328 2.27679 8.58639 2.27679 6.42854C2.27679 5.04325 2.8271 3.71471 3.80664 2.73517C4.78618 1.75562 6.11473 1.20532 7.50001 1.20532ZM7.50001 4.41961C6.96721 4.41961 6.45623 4.63126 6.07948 5.00801C5.70273 5.38476 5.49108 5.89574 5.49108 6.42854C5.49108 6.96134 5.70273 7.47232 6.07948 7.84906C6.45623 8.22581 6.96721 8.43746 7.50001 8.43746C8.03281 8.43746 8.54379 8.22581 8.92054 7.84906C9.29728 7.47232 9.50894 6.96134 9.50894 6.42854C9.50894 5.89574 9.29728 5.38476 8.92054 5.00801C8.54379 4.63126 8.03281 4.41961 7.50001 4.41961Z" fill="#0E7490"/>
</g>
</svg>
