<svg width="15" height="15" viewBox="0 0 15 15" fill="none" xmlns="http://www.w3.org/2000/svg">
<g opacity="0.5">
<path d="M7.5 1.25C4.05 1.25 1.25 4.05 1.25 7.5C1.25 10.95 4.05 13.75 7.5 13.75C10.95 13.75 13.75 10.95 13.75 7.5C13.75 4.05 10.95 1.25 7.5 1.25ZM8.05 11.1V11.325C8.05 11.625 7.80625 11.875 7.5 11.875C7.2 11.875 6.95 11.6313 6.95 11.325V11.0625C6.55625 10.9688 5.74375 10.6812 5.26875 9.75C5.125 9.475 5.2625 9.13125 5.55 9.0125L5.59375 8.99375C5.85 8.8875 6.1375 8.99375 6.26875 9.2375C6.46875 9.61875 6.8625 10.0938 7.59375 10.0938C8.175 10.0938 8.83125 9.79375 8.83125 9.0875C8.83125 8.4875 8.39375 8.175 7.40625 7.81875C6.71875 7.575 5.3125 7.175 5.3125 5.75C5.3125 5.6875 5.31875 4.25 6.95 3.9V3.675C6.95 3.36875 7.2 3.125 7.5 3.125C7.8 3.125 8.05 3.36875 8.05 3.675V3.90625C8.71875 4.025 9.14375 4.38125 9.4 4.71875C9.6125 4.99375 9.5 5.39375 9.175 5.53125C8.95 5.625 8.6875 5.55 8.5375 5.35625C8.3625 5.11875 8.05 4.875 7.5375 4.875C7.1 4.875 6.40625 5.10625 6.40625 5.74375C6.40625 6.3375 6.94375 6.5625 8.05625 6.93125C9.55625 7.45 9.9375 8.2125 9.9375 9.0875C9.9375 10.7313 8.375 11.0438 8.05 11.1Z" fill="#0E7490"/>
</g>
</svg>
