<svg width="31" height="31" viewBox="0 0 31 31" fill="none" xmlns="http://www.w3.org/2000/svg">
<g opacity="0.3">
<path d="M15.2858 22.9825H23.7983C24.1298 23.0011 24.4605 22.9345 24.759 22.789C25.0574 22.6434 25.3136 22.4239 25.5031 22.1513C25.6926 21.8787 25.8091 21.5621 25.8416 21.2317C25.874 20.9013 25.8212 20.568 25.6883 20.2638C25.2383 18.9038 23.4446 17.2725 23.4446 15.6675C23.4446 12.105 23.4446 11.1675 21.6896 9.07253C21.1217 8.3982 20.4175 7.85165 19.6233 7.46878L18.6446 6.99378C18.4804 6.89465 18.3387 6.76226 18.2287 6.6051C18.1187 6.44795 18.0428 6.26952 18.0058 6.08128C17.908 5.44679 17.5725 4.87326 17.0674 4.47701C16.5623 4.08077 15.9254 3.89148 15.2858 3.94753C14.6579 3.90982 14.0384 4.10755 13.5483 4.5021C13.0583 4.89666 12.733 5.4597 12.6358 6.08128C12.5918 6.27602 12.5055 6.45869 12.383 6.61638C12.2605 6.77406 12.1049 6.9029 11.9271 6.99378L10.9483 7.46878C10.1546 7.85179 9.4509 8.39833 8.88334 9.07253C7.12959 11.1675 7.12959 12.105 7.12959 15.6675C7.12959 17.2725 5.41709 18.74 4.96709 20.1813C4.69584 21.0525 4.54584 22.9825 6.81709 22.9825H15.2858Z" stroke="#1E293B" stroke-width="1.5" stroke-linecap="round" stroke-linejoin="round"/>
<path d="M19.3646 22.9825C19.3753 23.5211 19.2771 24.0563 19.0759 24.556C18.8747 25.0557 18.5747 25.5096 18.1938 25.8905C17.8129 26.2714 17.359 26.5715 16.8593 26.7726C16.3596 26.9738 15.8244 27.072 15.2858 27.0613C14.7471 27.0727 14.2117 26.975 13.7117 26.7741C13.2118 26.5731 12.7577 26.2731 12.3767 25.892C11.9958 25.511 11.6959 25.0567 11.4951 24.5567C11.2943 24.0567 11.1967 23.5212 11.2083 22.9825" stroke="#1E293B" stroke-width="1.5" stroke-linecap="round" stroke-linejoin="round"/>
</g>
</svg>
