<svg width="30" height="31" viewBox="0 0 30 31" fill="none" xmlns="http://www.w3.org/2000/svg">
<path fill-rule="evenodd" clip-rule="evenodd" d="M10 9.25C10 7.92392 10.5268 6.65215 11.4645 5.71447C12.4021 4.77678 13.6739 4.25 15 4.25C16.3261 4.25 17.5979 4.77678 18.5355 5.71447C19.4732 6.65215 20 7.92392 20 9.25C20 10.5761 19.4732 11.8479 18.5355 12.7855C17.5979 13.7232 16.3261 14.25 15 14.25C13.6739 14.25 12.4021 13.7232 11.4645 12.7855C10.5268 11.8479 10 10.5761 10 9.25ZM10 16.75C8.3424 16.75 6.75269 17.4085 5.58058 18.5806C4.40848 19.7527 3.75 21.3424 3.75 23C3.75 23.9946 4.14509 24.9484 4.84835 25.6517C5.55161 26.3549 6.50544 26.75 7.5 26.75H22.5C23.4946 26.75 24.4484 26.3549 25.1517 25.6517C25.8549 24.9484 26.25 23.9946 26.25 23C26.25 21.3424 25.5915 19.7527 24.4194 18.5806C23.2473 17.4085 21.6576 16.75 20 16.75H10Z" fill="#0E7490"/>
</svg>
