<svg width="31" height="31" viewBox="0 0 31 31" fill="none" xmlns="http://www.w3.org/2000/svg">
<g opacity="0.3">
<path d="M22.0456 26.8053V6.35791C22.0456 5.91821 21.871 5.49651 21.56 5.1856C21.2491 4.87468 20.8274 4.70001 20.3877 4.70001H7.12458C6.68488 4.70001 6.26319 4.87468 5.95228 5.1856C5.64136 5.49651 5.46669 5.91821 5.46669 6.35791V25.1474C5.46669 25.5871 5.64136 26.0088 5.95228 26.3197C6.26319 26.6306 6.68488 26.8053 7.12458 26.8053H22.0456ZM22.0456 26.8053H24.8088C25.2485 26.8053 25.6702 26.6306 25.9811 26.3197C26.292 26.0088 26.4667 25.5871 26.4667 25.1474V15.7526C26.4667 15.4595 26.3502 15.1784 26.143 14.9711C25.9357 14.7638 25.6546 14.6474 25.3614 14.6474H23.1509C22.8578 14.6474 22.5766 14.7638 22.3694 14.9711C22.1621 15.1784 22.0456 15.4595 22.0456 15.7526V26.8053Z" stroke="#1E293B" stroke-width="1.5" stroke-linejoin="round"/>
<path d="M8.78249 9.12103H13.2035M8.78249 12.9895H15.4141" stroke="#1E293B" stroke-width="1.5" stroke-linecap="round" stroke-linejoin="round"/>
</g>
</svg>
