<svg width="30" height="31" viewBox="0 0 30 31" fill="none" xmlns="http://www.w3.org/2000/svg">
<g opacity="0.3">
<path d="M25.375 25.875L21 21.5M21.25 13C21.25 14.1491 21.0237 15.2869 20.5839 16.3485C20.1442 17.4101 19.4997 18.3747 18.6872 19.1872C17.8747 19.9997 16.9101 20.6442 15.8485 21.0839C14.7869 21.5237 13.6491 21.75 12.5 21.75C11.3509 21.75 10.2131 21.5237 9.15152 21.0839C8.08992 20.6442 7.12533 19.9997 6.31282 19.1872C5.5003 18.3747 4.85578 17.4101 4.41605 16.3485C3.97633 15.2869 3.75 14.1491 3.75 13C3.75 10.6794 4.67187 8.45376 6.31282 6.81282C7.95376 5.17187 10.1794 4.25 12.5 4.25C14.8206 4.25 17.0462 5.17187 18.6872 6.81282C20.3281 8.45376 21.25 10.6794 21.25 13Z" stroke="#1E293B" stroke-width="1.8" stroke-linecap="round"/>
</g>
</svg>
