<svg width="88" height="88" viewBox="0 0 88 88" fill="none" xmlns="http://www.w3.org/2000/svg">
<path d="M82.2266 34.1641C80.7539 32.625 79.2305 31.0391 78.6562 29.6445C78.125 28.3672 78.0938 26.25 78.0625 24.1992C78.0039 20.3867 77.9414 16.0664 74.9375 13.0625C71.9336 10.0586 67.6133 9.99609 63.8008 9.9375C61.75 9.90625 59.6328 9.875 58.3555 9.34375C56.9648 8.76953 55.375 7.24609 53.8359 5.77344C51.1406 3.18359 48.0781 0.25 44 0.25C39.9219 0.25 36.8633 3.18359 34.1641 5.77344C32.625 7.24609 31.0391 8.76953 29.6445 9.34375C28.375 9.875 26.25 9.90625 24.1992 9.9375C20.3867 9.99609 16.0664 10.0586 13.0625 13.0625C10.0586 16.0664 10.0156 20.3867 9.9375 24.1992C9.90625 26.25 9.875 28.3672 9.34375 29.6445C8.76953 31.0352 7.24609 32.625 5.77344 34.1641C3.18359 36.8594 0.25 39.9219 0.25 44C0.25 48.0781 3.18359 51.1367 5.77344 53.8359C7.24609 55.375 8.76953 56.9609 9.34375 58.3555C9.875 59.6328 9.90625 61.75 9.9375 63.8008C9.99609 67.6133 10.0586 71.9336 13.0625 74.9375C16.0664 77.9414 20.3867 78.0039 24.1992 78.0625C26.25 78.0938 28.3672 78.125 29.6445 78.6562C31.0352 79.2305 32.625 80.7539 34.1641 82.2266C36.8594 84.8164 39.9219 87.75 44 87.75C48.0781 87.75 51.1367 84.8164 53.8359 82.2266C55.375 80.7539 56.9609 79.2305 58.3555 78.6562C59.6328 78.125 61.75 78.0938 63.8008 78.0625C67.6133 78.0039 71.9336 77.9414 74.9375 74.9375C77.9414 71.9336 78.0039 67.6133 78.0625 63.8008C78.0938 61.75 78.125 59.6328 78.6562 58.3555C79.2305 56.9648 80.7539 55.375 82.2266 53.8359C84.8164 51.1406 87.75 48.0781 87.75 44C87.75 39.9219 84.8164 36.8633 82.2266 34.1641ZM77.7148 49.5117C75.8438 51.4648 73.9062 53.4844 72.8789 55.9648C71.8945 58.3477 71.8516 61.0703 71.8125 63.707C71.7734 66.4414 71.7305 69.3047 70.5156 70.5156C69.3008 71.7266 66.457 71.7734 63.707 71.8125C61.0703 71.8516 58.3477 71.8945 55.9648 72.8789C53.4844 73.9062 51.4648 75.8438 49.5117 77.7148C47.5586 79.5859 45.5625 81.5 44 81.5C42.4375 81.5 40.4258 79.5781 38.4883 77.7148C36.5508 75.8516 34.5156 73.9062 32.0352 72.8789C29.6523 71.8945 26.9297 71.8516 24.293 71.8125C21.5586 71.7734 18.6953 71.7305 17.4844 70.5156C16.2734 69.3008 16.2266 66.457 16.1875 63.707C16.1484 61.0703 16.1055 58.3477 15.1211 55.9648C14.0938 53.4844 12.1562 51.4648 10.2852 49.5117C8.41406 47.5586 6.5 45.5625 6.5 44C6.5 42.4375 8.42187 40.4258 10.2852 38.4883C12.1484 36.5508 14.0938 34.5156 15.1211 32.0352C16.1055 29.6523 16.1484 26.9297 16.1875 24.293C16.2266 21.5586 16.2695 18.6953 17.4844 17.4844C18.6992 16.2734 21.543 16.2266 24.293 16.1875C26.9297 16.1484 29.6523 16.1055 32.0352 15.1211C34.5156 14.0938 36.5352 12.1562 38.4883 10.2852C40.4414 8.41406 42.4375 6.5 44 6.5C45.5625 6.5 47.5742 8.42187 49.5117 10.2852C51.4492 12.1484 53.4844 14.0938 55.9648 15.1211C58.3477 16.1055 61.0703 16.1484 63.707 16.1875C66.4414 16.2266 69.3047 16.2695 70.5156 17.4844C71.7266 18.6992 71.7734 21.543 71.8125 24.293C71.8516 26.9297 71.8945 29.6523 72.8789 32.0352C73.9062 34.5156 75.8438 36.5352 77.7148 38.4883C79.5859 40.4414 81.5 42.4375 81.5 44C81.5 45.5625 79.5781 47.5742 77.7148 49.5117ZM61.8359 32.4141C62.1265 32.7043 62.357 33.0489 62.5143 33.4283C62.6715 33.8077 62.7525 34.2143 62.7525 34.625C62.7525 35.0357 62.6715 35.4423 62.5143 35.8217C62.357 36.2011 62.1265 36.5457 61.8359 36.8359L39.9609 58.7109C39.6707 59.0015 39.3261 59.232 38.9467 59.3893C38.5673 59.5465 38.1607 59.6275 37.75 59.6275C37.3393 59.6275 36.9327 59.5465 36.5533 59.3893C36.1739 59.232 35.8293 59.0015 35.5391 58.7109L26.1641 49.3359C25.5777 48.7496 25.2483 47.9543 25.2483 47.125C25.2483 46.2957 25.5777 45.5004 26.1641 44.9141C26.7504 44.3277 27.5457 43.9983 28.375 43.9983C29.2043 43.9983 29.9996 44.3277 30.5859 44.9141L37.75 52.082L57.4141 32.4141C57.7043 32.1235 58.0489 31.893 58.4283 31.7358C58.8077 31.5785 59.2143 31.4975 59.625 31.4975C60.0357 31.4975 60.4423 31.5785 60.8217 31.7358C61.2011 31.893 61.5457 32.1235 61.8359 32.4141Z" fill="#0E7490"/>
</svg>
