<svg width="15" height="15" viewBox="0 0 15 15" fill="none" xmlns="http://www.w3.org/2000/svg">
<g opacity="0.5" clip-path="url(#clip0_1_645)">
<path d="M7.5 7.5C8.49456 7.5 9.44839 7.10491 10.1517 6.40165C10.8549 5.69839 11.25 4.74456 11.25 3.75C11.25 2.75544 10.8549 1.80161 10.1517 1.09835C9.44839 0.395088 8.49456 0 7.5 0C6.50544 0 5.55161 0.395088 4.84835 1.09835C4.14509 1.80161 3.75 2.75544 3.75 3.75C3.75 4.74456 4.14509 5.69839 4.84835 6.40165C5.55161 7.10491 6.50544 7.5 7.5 7.5ZM4.6875 9.11719C2.51953 9.75293 0.9375 11.7568 0.9375 14.1299C0.9375 14.6104 1.32715 15 1.80762 15H13.1924C13.6729 15 14.0625 14.6104 14.0625 14.1299C14.0625 11.7568 12.4805 9.75293 10.3125 9.11719V10.6055C11.1211 10.8135 11.7188 11.5488 11.7188 12.4219V13.5938C11.7188 13.8516 11.5078 14.0625 11.25 14.0625H10.7812C10.5234 14.0625 10.3125 13.8516 10.3125 13.5938C10.3125 13.3359 10.5234 13.125 10.7812 13.125V12.4219C10.7812 11.9033 10.3623 11.4844 9.84375 11.4844C9.3252 11.4844 8.90625 11.9033 8.90625 12.4219V13.125C9.16406 13.125 9.375 13.3359 9.375 13.5938C9.375 13.8516 9.16406 14.0625 8.90625 14.0625H8.4375C8.17969 14.0625 7.96875 13.8516 7.96875 13.5938V12.4219C7.96875 11.5488 8.56641 10.8135 9.375 10.6055V8.93262C9.19922 8.91504 9.02051 8.90625 8.83887 8.90625H6.16113C5.97949 8.90625 5.80078 8.91504 5.625 8.93262V10.8486C6.30176 11.0508 6.79688 11.6777 6.79688 12.4219C6.79688 13.3271 6.06152 14.0625 5.15625 14.0625C4.25098 14.0625 3.51562 13.3271 3.51562 12.4219C3.51562 11.6777 4.01074 11.0508 4.6875 10.8486V9.11719ZM5.15625 13.125C5.34273 13.125 5.52157 13.0509 5.65343 12.9191C5.7853 12.7872 5.85938 12.6084 5.85938 12.4219C5.85938 12.2354 5.7853 12.0566 5.65343 11.9247C5.52157 11.7928 5.34273 11.7188 5.15625 11.7188C4.96977 11.7188 4.79093 11.7928 4.65907 11.9247C4.5272 12.0566 4.45312 12.2354 4.45312 12.4219C4.45312 12.6084 4.5272 12.7872 4.65907 12.9191C4.79093 13.0509 4.96977 13.125 5.15625 13.125Z" fill="#0E7490"/>
</g>
<defs>
<clipPath id="clip0_1_645">
<rect width="15" height="15" fill="white"/>
</clipPath>
</defs>
</svg>
