<svg width="30" height="30" viewBox="0 0 30 30" fill="none" xmlns="http://www.w3.org/2000/svg">
<path d="M21.25 18.125V13.75C21.25 13.4185 21.1183 13.1006 20.8839 12.8662C20.6495 12.6317 20.3315 12.5 20 12.5H5C4.66848 12.5 4.35054 12.6317 4.11612 12.8662C3.8817 13.1006 3.75 13.4185 3.75 13.75V26.25C3.75 26.5816 3.8817 26.8995 4.11612 27.1339C4.35054 27.3684 4.66848 27.5 5 27.5H20C20.3315 27.5 20.6495 27.3684 20.8839 27.1339C21.1183 26.8995 21.25 26.5816 21.25 26.25V21.875L26.25 25.0001V15.0001M4.68108 3.99564C4.1468 4.42559 4.14986 5.2192 4.63827 5.70063C5.11631 6.17184 5.88024 6.16462 6.412 5.75499C9.98483 3.00273 15.0144 3.00257 18.5874 5.75451C19.1195 6.16437 19.8839 6.17159 20.3623 5.70007C20.8506 5.21876 20.8542 4.42548 20.3205 3.99512C15.7861 0.339019 9.22483 0.339192 4.68108 3.99564ZM8.21322 7.47549C7.64813 7.86916 7.65179 8.6711 8.14227 9.15457C8.61922 9.62471 9.37907 9.61134 9.95801 9.27469C11.5193 8.36683 13.4807 8.36683 15.042 9.27469C15.6209 9.61134 16.3808 9.62471 16.8577 9.15457C17.3482 8.6711 17.3519 7.86917 16.7868 7.47549C14.2261 5.69157 10.7739 5.69157 8.21322 7.47549Z" fill="#475569"/>
</svg>
